<mxfile host="Electron" agent="Mozilla/5.0 (Macintosh; Intel Mac OS X 10_15_7) AppleWebKit/537.36 (KHTML, like Gecko) draw.io/26.0.9 Chrome/128.0.6613.186 Electron/32.2.5 Safari/537.36" version="26.0.9">
  <diagram name="第 1 页" id="Z5SmqutZH8IfNpj86Ztt">
    <mxGraphModel dx="1338" dy="805" grid="1" gridSize="10" guides="1" tooltips="1" connect="1" arrows="1" fold="1" page="1" pageScale="1" pageWidth="827" pageHeight="1169" math="1" shadow="0">
      <root>
        <mxCell id="0" />
        <mxCell id="1" parent="0" />
        <mxCell id="eMgfDapkKq85iWudBlhY-24" value="" style="rounded=1;whiteSpace=wrap;html=1;arcSize=8;strokeColor=#011F8D;fillColor=none;" parent="1" vertex="1">
          <mxGeometry x="80" y="500" width="600" height="120" as="geometry" />
        </mxCell>
        <mxCell id="OPQ5iBnHmv8s3tC-Xt73-5" value="&lt;font face=&quot;楷体_GB2312&quot; style=&quot;line-height: 150%;&quot;&gt;研究目标（4）:&lt;/font&gt;&lt;span style=&quot;background-color: transparent;&quot;&gt;任意节点分布时空混合离散伽辽金无网格分析方法&lt;/span&gt;" style="text;html=1;align=left;verticalAlign=middle;resizable=0;points=[];autosize=1;strokeColor=none;fillColor=#fff2cc;fontFamily=楷体_GB2312;fontStyle=1;rounded=1;glass=1;shadow=1;fontColor=#000000;fontSize=16;" parent="1" vertex="1">
          <mxGeometry x="135" y="570" width="490" height="40" as="geometry" />
        </mxCell>
        <mxCell id="eMgfDapkKq85iWudBlhY-41" style="edgeStyle=orthogonalEdgeStyle;rounded=0;orthogonalLoop=1;jettySize=auto;html=1;dashed=1;dashPattern=1 1;entryX=0.499;entryY=0.063;entryDx=0;entryDy=0;entryPerimeter=0;" parent="1" source="OPQ5iBnHmv8s3tC-Xt73-2" target="OPQ5iBnHmv8s3tC-Xt73-5" edge="1">
          <mxGeometry relative="1" as="geometry">
            <mxPoint x="380" y="604" as="targetPoint" />
          </mxGeometry>
        </mxCell>
        <mxCell id="eMgfDapkKq85iWudBlhY-38" value="" style="rounded=0;whiteSpace=wrap;html=1;fontColor=none;noLabel=1;fillColor=default;dashed=1;dashPattern=1 1;" parent="1" vertex="1">
          <mxGeometry x="160" y="530" width="440" height="30" as="geometry" />
        </mxCell>
        <mxCell id="eMgfDapkKq85iWudBlhY-12" value="" style="rounded=1;whiteSpace=wrap;html=1;arcSize=8;strokeColor=#011F8D;fillColor=none;" parent="1" vertex="1">
          <mxGeometry x="80" y="160" width="600" height="120" as="geometry" />
        </mxCell>
        <mxCell id="eMgfDapkKq85iWudBlhY-18" value="" style="rounded=1;whiteSpace=wrap;html=1;arcSize=8;strokeColor=#011F8D;fillColor=none;" parent="1" vertex="1">
          <mxGeometry x="400" y="290" width="280" height="200" as="geometry" />
        </mxCell>
        <mxCell id="eMgfDapkKq85iWudBlhY-16" value="" style="rounded=1;whiteSpace=wrap;html=1;arcSize=8;strokeColor=#011F8D;fillColor=none;" parent="1" vertex="1">
          <mxGeometry x="80" y="290" width="280" height="200" as="geometry" />
        </mxCell>
        <mxCell id="OPQ5iBnHmv8s3tC-Xt73-2" value="&lt;font face=&quot;楷体_GB2312&quot; style=&quot;line-height: 150%;&quot;&gt;研究目标（1）:&lt;/font&gt;&lt;span style=&quot;background-color: transparent; color: light-dark(rgb(0, 0, 0), rgb(255, 255, 255));&quot;&gt;适用于任意节点分布的时域末端虚位移边界条件施加方案&lt;/span&gt;" style="text;html=1;align=center;verticalAlign=middle;resizable=0;points=[];autosize=1;strokeColor=none;fillColor=#fff2cc;fontFamily=楷体_GB2312;fontStyle=1;dashed=1;rounded=1;glass=1;shadow=1;fontSize=16;" parent="1" vertex="1">
          <mxGeometry x="110" y="235" width="540" height="40" as="geometry" />
        </mxCell>
        <mxCell id="OPQ5iBnHmv8s3tC-Xt73-3" value="研究内容（2）" style="text;html=1;align=left;verticalAlign=middle;resizable=0;points=[];autosize=1;strokeColor=none;fillColor=none;fontFamily=楷体_GB2312;fontStyle=1;fontColor=#011F8D;spacing=2;horizontal=1;spacingTop=0;fontSize=16;" parent="1" vertex="1">
          <mxGeometry x="80" y="290" width="130" height="30" as="geometry" />
        </mxCell>
        <mxCell id="OPQ5iBnHmv8s3tC-Xt73-4" value="研究内容（3）" style="text;html=1;align=left;verticalAlign=middle;resizable=0;points=[];autosize=1;strokeColor=none;fillColor=none;fontFamily=楷体_GB2312;fontStyle=1;fontColor=#011F8D;fontSize=16;" parent="1" vertex="1">
          <mxGeometry x="400" y="290" width="130" height="30" as="geometry" />
        </mxCell>
        <mxCell id="OPQ5iBnHmv8s3tC-Xt73-6" value="拉格朗日乘子型泛函" style="text;html=1;align=center;verticalAlign=middle;whiteSpace=wrap;rounded=0;fontFamily=楷体_GB2312;fontSize=16;" parent="1" vertex="1">
          <mxGeometry x="305" y="190" width="150" height="30" as="geometry" />
        </mxCell>
        <mxCell id="OPQ5iBnHmv8s3tC-Xt73-7" value="欧拉-拉格朗日方程" style="text;html=1;align=center;verticalAlign=middle;whiteSpace=wrap;rounded=0;fontFamily=楷体_GB2312;fontSize=16;" parent="1" vertex="1">
          <mxGeometry x="530" y="190" width="140" height="30" as="geometry" />
        </mxCell>
        <mxCell id="OPQ5iBnHmv8s3tC-Xt73-8" value="哈密顿变分原理" style="text;html=1;align=center;verticalAlign=middle;whiteSpace=wrap;rounded=0;fontFamily=楷体_GB2312;fontSize=16;" parent="1" vertex="1">
          <mxGeometry x="84" y="190" width="116" height="30" as="geometry" />
        </mxCell>
        <mxCell id="eMgfDapkKq85iWudBlhY-20" value="&lt;span&gt;&lt;font style=&quot;color: rgb(255, 0, 0);&quot;&gt;关键科学问题（2）&lt;/font&gt;&lt;/span&gt;" style="edgeStyle=orthogonalEdgeStyle;rounded=0;orthogonalLoop=1;jettySize=auto;html=1;exitX=0.5;exitY=1;exitDx=0;exitDy=0;entryX=0.5;entryY=0;entryDx=0;entryDy=0;startArrow=classic;startFill=1;fontFamily=楷体_GB2312;fontSize=12;fontStyle=1" parent="1" source="OPQ5iBnHmv8s3tC-Xt73-10" target="OPQ5iBnHmv8s3tC-Xt73-13" edge="1">
          <mxGeometry relative="1" as="geometry">
            <mxPoint as="offset" />
          </mxGeometry>
        </mxCell>
        <mxCell id="OPQ5iBnHmv8s3tC-Xt73-10" value="局部截断误差稳定性分析" style="text;html=1;align=center;verticalAlign=middle;whiteSpace=wrap;rounded=0;fontFamily=楷体_GB2312;fontSize=16;" parent="1" vertex="1">
          <mxGeometry x="130" y="310" width="180" height="30" as="geometry" />
        </mxCell>
        <mxCell id="OPQ5iBnHmv8s3tC-Xt73-13" value="时间维度和空间维度再生核近似阶次" style="text;html=1;align=center;verticalAlign=middle;whiteSpace=wrap;rounded=0;fontFamily=楷体_GB2312;fontSize=16;" parent="1" vertex="1">
          <mxGeometry x="150" y="380" width="140" height="30" as="geometry" />
        </mxCell>
        <mxCell id="OPQ5iBnHmv8s3tC-Xt73-14" value="&lt;div style=&quot;line-height: 150%;&quot;&gt;高维时空背景积分域&lt;div&gt;（如四面体柱、六面体柱）&lt;/div&gt;&lt;/div&gt;" style="text;html=1;align=center;verticalAlign=middle;whiteSpace=wrap;rounded=0;fontFamily=楷体_GB2312;fontSize=16;" parent="1" vertex="1">
          <mxGeometry x="440" y="320" width="200" height="30" as="geometry" />
        </mxCell>
        <mxCell id="OPQ5iBnHmv8s3tC-Xt73-15" value="优化全域数值积分点数量" style="text;html=1;align=center;verticalAlign=middle;whiteSpace=wrap;rounded=0;fontFamily=楷体_GB2312;fontSize=16;" parent="1" vertex="1">
          <mxGeometry x="450" y="390" width="180" height="30" as="geometry" />
        </mxCell>
        <mxCell id="OPQ5iBnHmv8s3tC-Xt73-18" value="程序内存优化" style="text;html=1;align=center;verticalAlign=middle;whiteSpace=wrap;rounded=0;fontFamily=楷体_GB2312;fontSize=16;" parent="1" vertex="1">
          <mxGeometry x="490" y="530" width="100" height="30" as="geometry" />
        </mxCell>
        <mxCell id="OPQ5iBnHmv8s3tC-Xt73-19" value="自适应节点加密" style="text;html=1;align=center;verticalAlign=middle;whiteSpace=wrap;rounded=0;fontFamily=楷体_GB2312;fontSize=16;" parent="1" vertex="1">
          <mxGeometry x="160" y="530" width="120" height="30" as="geometry" />
        </mxCell>
        <mxCell id="OPQ5iBnHmv8s3tC-Xt73-20" value="时空整体并行计算" style="text;html=1;align=center;verticalAlign=middle;whiteSpace=wrap;rounded=0;fontFamily=楷体_GB2312;fontSize=16;" parent="1" vertex="1">
          <mxGeometry x="310" y="530" width="140" height="30" as="geometry" />
        </mxCell>
        <mxCell id="OPQ5iBnHmv8s3tC-Xt73-21" value="&lt;font style=&quot;color: rgb(255, 0, 0);&quot;&gt;&lt;span&gt;关键科学问题（1）&lt;/span&gt;&lt;/font&gt;" style="html=1;verticalAlign=bottom;endArrow=classic;curved=0;rounded=0;fontFamily=楷体_GB2312;endFill=1;fontSize=12;exitX=1;exitY=0.5;exitDx=0;exitDy=0;entryX=0;entryY=0.5;entryDx=0;entryDy=0;fontStyle=1" parent="1" source="OPQ5iBnHmv8s3tC-Xt73-8" target="OPQ5iBnHmv8s3tC-Xt73-6" edge="1">
          <mxGeometry x="0.1111" y="5" width="80" relative="1" as="geometry">
            <mxPoint x="230" y="204.71000000000004" as="sourcePoint" />
            <mxPoint x="320" y="204.71000000000004" as="targetPoint" />
            <mxPoint as="offset" />
          </mxGeometry>
        </mxCell>
        <mxCell id="OPQ5iBnHmv8s3tC-Xt73-22" value="" style="endArrow=classic;startArrow=classic;html=1;rounded=0;entryX=0;entryY=0.5;entryDx=0;entryDy=0;exitX=1;exitY=0.5;exitDx=0;exitDy=0;" parent="1" source="OPQ5iBnHmv8s3tC-Xt73-6" target="OPQ5iBnHmv8s3tC-Xt73-7" edge="1">
          <mxGeometry width="50" height="50" relative="1" as="geometry">
            <mxPoint x="430" y="204.70999999999998" as="sourcePoint" />
            <mxPoint x="520" y="205" as="targetPoint" />
          </mxGeometry>
        </mxCell>
        <mxCell id="eMgfDapkKq85iWudBlhY-1" value="等价性证明" style="edgeLabel;html=1;align=center;verticalAlign=middle;resizable=0;points=[];fontFamily=楷体_GB2312;fontSize=12;" parent="OPQ5iBnHmv8s3tC-Xt73-22" vertex="1" connectable="0">
          <mxGeometry x="0.6897" y="2" relative="1" as="geometry">
            <mxPoint x="-24" y="-13" as="offset" />
          </mxGeometry>
        </mxCell>
        <mxCell id="eMgfDapkKq85iWudBlhY-4" value="" style="rounded=1;whiteSpace=wrap;html=1;arcSize=8;fillColor=none;strokeColor=#006633;" parent="1" vertex="1">
          <mxGeometry x="80" y="80" width="600" height="70" as="geometry" />
        </mxCell>
        <mxCell id="OPQ5iBnHmv8s3tC-Xt73-9" value="变分一致型伽辽金无网格法本质边界条件施加方案" style="text;html=1;align=center;verticalAlign=middle;whiteSpace=wrap;rounded=0;fontFamily=楷体_GB2312;fontSize=16;" parent="1" vertex="1">
          <mxGeometry x="290" y="110" width="180" height="30" as="geometry" />
        </mxCell>
        <mxCell id="OPQ5iBnHmv8s3tC-Xt73-11" value="伽辽金无网格法精度分析" style="text;html=1;align=center;verticalAlign=middle;whiteSpace=wrap;rounded=0;fontFamily=楷体_GB2312;fontSize=16;" parent="1" vertex="1">
          <mxGeometry x="98" y="110" width="182" height="30" as="geometry" />
        </mxCell>
        <mxCell id="OPQ5iBnHmv8s3tC-Xt73-12" value="变分一致型伽辽金无网格法数值积分方案" style="text;html=1;align=center;verticalAlign=middle;whiteSpace=wrap;rounded=0;fontFamily=楷体_GB2312;fontSize=16;" parent="1" vertex="1">
          <mxGeometry x="495" y="110" width="150" height="30" as="geometry" />
        </mxCell>
        <mxCell id="eMgfDapkKq85iWudBlhY-3" value="研究基础" style="text;html=1;align=center;verticalAlign=middle;whiteSpace=wrap;rounded=0;fontFamily=楷体_GB2312;fontColor=#006633;fontStyle=1;fontSize=16;" parent="1" vertex="1">
          <mxGeometry x="80" y="80" width="70" height="30" as="geometry" />
        </mxCell>
        <mxCell id="eMgfDapkKq85iWudBlhY-15" style="edgeStyle=elbowEdgeStyle;rounded=0;orthogonalLoop=1;jettySize=auto;html=1;exitX=0.5;exitY=1;exitDx=0;exitDy=0;elbow=vertical;dashed=1;dashPattern=1 1;entryX=0.5;entryY=0;entryDx=0;entryDy=0;" parent="1" source="OPQ5iBnHmv8s3tC-Xt73-9" target="OPQ5iBnHmv8s3tC-Xt73-6" edge="1">
          <mxGeometry relative="1" as="geometry">
            <mxPoint x="390" y="210" as="targetPoint" />
          </mxGeometry>
        </mxCell>
        <mxCell id="eMgfDapkKq85iWudBlhY-17" style="edgeStyle=orthogonalEdgeStyle;rounded=0;orthogonalLoop=1;jettySize=auto;html=1;exitX=0;exitY=0.5;exitDx=0;exitDy=0;dashed=1;dashPattern=1 1;entryX=0;entryY=0.5;entryDx=0;entryDy=0;" parent="1" source="OPQ5iBnHmv8s3tC-Xt73-11" target="OPQ5iBnHmv8s3tC-Xt73-10" edge="1">
          <mxGeometry relative="1" as="geometry">
            <mxPoint x="150" y="380" as="targetPoint" />
            <Array as="points">
              <mxPoint x="70" y="125" />
              <mxPoint x="70" y="325" />
            </Array>
          </mxGeometry>
        </mxCell>
        <mxCell id="eMgfDapkKq85iWudBlhY-21" style="edgeStyle=orthogonalEdgeStyle;rounded=0;orthogonalLoop=1;jettySize=auto;html=1;exitX=1;exitY=0.5;exitDx=0;exitDy=0;entryX=1;entryY=0.533;entryDx=0;entryDy=0;entryPerimeter=0;dashed=1;dashPattern=1 1;" parent="1" source="OPQ5iBnHmv8s3tC-Xt73-12" target="eMgfDapkKq85iWudBlhY-18" edge="1">
          <mxGeometry relative="1" as="geometry">
            <Array as="points">
              <mxPoint x="690" y="125" />
              <mxPoint x="690" y="397" />
              <mxPoint x="680" y="397" />
            </Array>
          </mxGeometry>
        </mxCell>
        <mxCell id="eMgfDapkKq85iWudBlhY-27" value="&lt;font style=&quot;color: rgb(255, 0, 0);&quot; face=&quot;楷体_GB2312&quot;&gt;&lt;b&gt;关键科学问题（3）&lt;/b&gt;&lt;/font&gt;" style="edgeStyle=orthogonalEdgeStyle;rounded=0;orthogonalLoop=1;jettySize=auto;html=1;exitX=0.5;exitY=1;exitDx=0;exitDy=0;entryX=0.5;entryY=0.733;entryDx=0;entryDy=0;entryPerimeter=0;fontSize=12;" parent="1" edge="1">
          <mxGeometry x="-0.1319" relative="1" as="geometry">
            <mxPoint x="540" y="361" as="sourcePoint" />
            <mxPoint x="540" y="390.95000000000005" as="targetPoint" />
            <mxPoint as="offset" />
          </mxGeometry>
        </mxCell>
        <mxCell id="eMgfDapkKq85iWudBlhY-28" value="研究内容（1）" style="text;html=1;align=center;verticalAlign=middle;whiteSpace=wrap;rounded=0;fontFamily=楷体_GB2312;fontColor=#011F8D;fontStyle=1;fontSize=16;" parent="1" vertex="1">
          <mxGeometry x="80" y="160" width="110" height="30" as="geometry" />
        </mxCell>
        <mxCell id="eMgfDapkKq85iWudBlhY-31" value="" style="endArrow=classic;html=1;rounded=0;entryX=0.179;entryY=0.467;entryDx=0;entryDy=0;entryPerimeter=0;" parent="1" edge="1">
          <mxGeometry width="50" height="50" relative="1" as="geometry">
            <mxPoint x="379.7" y="218.95" as="sourcePoint" />
            <mxPoint x="379.8200000000001" y="239.00000000000006" as="targetPoint" />
          </mxGeometry>
        </mxCell>
        <mxCell id="eMgfDapkKq85iWudBlhY-42" style="edgeStyle=orthogonalEdgeStyle;rounded=0;orthogonalLoop=1;jettySize=auto;html=1;dashed=1;dashPattern=1 1;endArrow=none;startFill=0;" parent="1" source="eMgfDapkKq85iWudBlhY-32" edge="1">
          <mxGeometry relative="1" as="geometry">
            <mxPoint x="380" y="455" as="targetPoint" />
          </mxGeometry>
        </mxCell>
        <mxCell id="eMgfDapkKq85iWudBlhY-32" value="&lt;div style=&quot;text-align: center;&quot;&gt;&lt;font style=&quot;background-color: transparent; color: light-dark(rgb(0, 0, 0), rgb(255, 255, 255)); line-height: 150%;&quot; face=&quot;楷体_GB2312&quot;&gt;研究目标（2）:&lt;/font&gt;&lt;font style=&quot;background-color: transparent; color: light-dark(rgb(0, 0, 0), rgb(255, 255, 255));&quot; face=&quot;楷体_GB2312&quot;&gt;可缓解数值色散&lt;/font&gt;&lt;/div&gt;&lt;div style=&quot;text-align: center;&quot;&gt;&lt;font style=&quot;background-color: transparent; color: light-dark(rgb(0, 0, 0), rgb(255, 255, 255));&quot; face=&quot;楷体_GB2312&quot;&gt;问&lt;/font&gt;&lt;font style=&quot;background-color: transparent; color: light-dark(rgb(0, 0, 0), rgb(255, 255, 255));&quot; face=&quot;楷体_GB2312&quot;&gt;题&lt;/font&gt;&lt;font style=&quot;background-color: transparent; color: light-dark(rgb(0, 0, 0), rgb(255, 255, 255));&quot; face=&quot;楷体_GB2312&quot;&gt;的稳定再生核无网格近似&lt;/font&gt;&lt;span style=&quot;background-color: transparent; color: light-dark(rgb(0, 0, 0), rgb(255, 255, 255));&quot;&gt;方案&lt;/span&gt;&lt;/div&gt;" style="text;html=1;align=left;verticalAlign=middle;resizable=0;points=[];autosize=1;strokeColor=none;fillColor=#fff2cc;fontFamily=楷体_GB2312;fontStyle=1;spacing=2;horizontal=1;spacingTop=0;rounded=1;glass=1;shadow=1;fontSize=16;" parent="1" vertex="1">
          <mxGeometry x="90" y="430" width="260" height="50" as="geometry" />
        </mxCell>
        <mxCell id="eMgfDapkKq85iWudBlhY-43" style="edgeStyle=orthogonalEdgeStyle;rounded=0;orthogonalLoop=1;jettySize=auto;html=1;endArrow=none;startFill=0;dashed=1;dashPattern=1 1;" parent="1" source="eMgfDapkKq85iWudBlhY-33" edge="1">
          <mxGeometry relative="1" as="geometry">
            <mxPoint x="380" y="455" as="targetPoint" />
          </mxGeometry>
        </mxCell>
        <mxCell id="eMgfDapkKq85iWudBlhY-33" value="研究目标（3）:时空混合离散变分&#xa;一致型伽辽金无网格数值积分方案" style="text;align=center;verticalAlign=middle;resizable=0;points=[];autosize=1;strokeColor=none;fillColor=#fff2cc;fontFamily=楷体_GB2312;fontStyle=1;rounded=1;glass=1;imageHeight=12;shadow=1;fontSize=16;" parent="1" vertex="1">
          <mxGeometry x="410" y="430" width="260" height="50" as="geometry" />
        </mxCell>
        <mxCell id="eMgfDapkKq85iWudBlhY-35" style="edgeStyle=orthogonalEdgeStyle;rounded=0;orthogonalLoop=1;jettySize=auto;html=1;exitX=0.5;exitY=1;exitDx=0;exitDy=0;entryX=0.451;entryY=0.25;entryDx=0;entryDy=0;entryPerimeter=0;" parent="1" edge="1">
          <mxGeometry relative="1" as="geometry">
            <mxPoint x="540" y="413" as="sourcePoint" />
            <mxPoint x="540.1999999999998" y="433" as="targetPoint" />
          </mxGeometry>
        </mxCell>
        <mxCell id="eMgfDapkKq85iWudBlhY-36" style="edgeStyle=orthogonalEdgeStyle;rounded=0;orthogonalLoop=1;jettySize=auto;html=1;exitX=0.5;exitY=1;exitDx=0;exitDy=0;entryX=0.451;entryY=0.25;entryDx=0;entryDy=0;entryPerimeter=0;" parent="1" edge="1">
          <mxGeometry relative="1" as="geometry">
            <mxPoint x="219.7" y="410" as="sourcePoint" />
            <mxPoint x="219.8999999999998" y="430" as="targetPoint" />
          </mxGeometry>
        </mxCell>
        <mxCell id="eMgfDapkKq85iWudBlhY-37" value="研究内容（4）" style="text;html=1;align=left;verticalAlign=middle;resizable=0;points=[];autosize=1;strokeColor=none;fillColor=none;fontFamily=楷体_GB2312;fontStyle=1;fontColor=#011F8D;spacing=2;horizontal=1;spacingTop=0;fontSize=16;" parent="1" vertex="1">
          <mxGeometry x="80" y="500" width="130" height="30" as="geometry" />
        </mxCell>
      </root>
    </mxGraphModel>
  </diagram>
</mxfile>
